<svg id="Camada_1" data-name="Camada 1" xmlns="http://www.w3.org/2000/svg" viewBox="0 0 3763 3764"><defs><style>.cls-1{fill:none;}.cls-2{fill:#00bfb2;}</style></defs><title>calendar-line</title><g id="Layer_1"><path class="cls-1" d="M1544,470h658m952,0h323c103,0,188,84,188,188V3478c0,103-84,188-188,188H286c-103,0-188-84-188-188V658c0-103,84-188,188-188H631M98,1486H3665" transform="translate(-3)"/><path class="cls-2" d="M2499,145c0-80,79-145,177-145s177,65,177,145V780c0,80-79,145-177,145s-177-65-177-145ZM2024,3179c-10,0-19-44-19-98s8-98,19-98h483c10,0,19,44,19,98s-8,98-19,98ZM485,2055c-10,0-19-44-19-98s8-98,19-98H968c10,0,19,44,19,98s-8,98-19,98Zm770,0c-10,0-19-44-19-98s8-98,19-98h483c10,0,19,44,19,98s-8,98-19,98Zm770,0c-10,0-19-44-19-98s8-98,19-98h483c10,0,19,44,19,98s-8,98-19,98Zm770,0c-10,0-19-44-19-98s8-98,19-98h483c10,0,19,44,19,98s-8,98-19,98ZM486,2617c-10,0-19-44-19-98s8-98,19-98H969c10,0,19,44,19,98s-8,98-19,98Zm770,0c-10,0-19-44-19-98s8-98,19-98h483c10,0,19,44,19,98s-8,98-19,98Zm770,0c-10,0-19-44-19-98s8-98,19-98h483c10,0,19,44,19,98s-8,98-19,98Zm770,0c-10,0-19-44-19-98s8-98,19-98h483c10,0,19,44,19,98s-8,98-19,98ZM487,3179c-10,0-19-44-19-98s8-98,19-98H970c10,0,19,44,19,98s-8,98-19,98Zm770,0c-10,0-19-44-19-98s8-98,19-98h483c10,0,19,44,19,98s-8,98-19,98ZM909,145C909,65,988,0,1086,0s177,65,177,145V780c0,80-79,145-177,145S909,860,909,780ZM198,1388H3569V657a88.33,88.33,0,0,0-26-63,90.11,90.11,0,0,0-63-26H3157a98,98,0,0,1,0-196h323c79,0,150,32,202,84s84,123,84,202V3478c0,79-32,150-84,202s-123,84-202,84H289c-79,0-150-32-202-84S3,3557,3,3478V658c0-79,32-150,84-202s123-84,202-84H634a98,98,0,0,1,0,196H289a88.33,88.33,0,0,0-63,26,90.11,90.11,0,0,0-26,63v731Zm3371,196H198V3477a88.33,88.33,0,0,0,26,63,90.11,90.11,0,0,0,63,26H3478a88.33,88.33,0,0,0,63-26,90.11,90.11,0,0,0,26-63V1584ZM1546,568a98,98,0,0,1,0-196h658a98,98,0,0,1,0,196Z" transform="translate(-3)"/><path class="cls-1" d="M485,1957H969m286,0h483m287,0h483m286,0h484M485,2519H969m286,0h483m287,0h483m286,0h484M485,3081H969m286,0h483m287,0h483" transform="translate(-3)"/></g></svg>