<?xml version="1.0" encoding="utf-8"?>
<!-- Generator: Adobe Illustrator 23.0.3, SVG Export Plug-In . SVG Version: 6.00 Build 0)  -->
<svg version="1.1" id="Camada_1" xmlns="http://www.w3.org/2000/svg" xmlns:xlink="http://www.w3.org/1999/xlink" x="0px" y="0px"
	 viewBox="0 0 500 500" style="enable-background:new 0 0 500 500;" xml:space="preserve">
<style type="text/css">
	.st0{fill:#4F5052;}
</style>
<path class="st0" d="M427.4,50.6H72.6c-12.2,0-22,9.9-22,22v354.8c0,12.1,9.9,22,22,22h191V295h-52v-60.2h52v-44.4
	c0-51.5,31.5-79.6,77.4-79.6c22,0,40.9,1.6,46.4,2.4V167h-31.9c-25,0-29.8,11.9-29.8,29.3v38.4h59.6l-7.8,60.2h-51.8v154.4h101.6
	c12.1,0,22-9.9,22-22V72.6C449.4,60.5,439.5,50.6,427.4,50.6z"/>
</svg>
