<?xml version="1.0" encoding="utf-8"?>
<!-- Generator: Adobe Illustrator 23.0.3, SVG Export Plug-In . SVG Version: 6.00 Build 0)  -->
<svg version="1.1" id="Camada_1" xmlns="http://www.w3.org/2000/svg" xmlns:xlink="http://www.w3.org/1999/xlink" x="0px" y="0px"
	 viewBox="0 0 500 500" style="enable-background:new 0 0 500 500;" xml:space="preserve">
<style type="text/css">
	.st0{display:none;fill:#FFFFFF;}
	.st1{fill:#4F5052;}
</style>
<path class="st0" d="M427.4,50.6H72.6c-12.2,0-22,9.9-22,22v354.8c0,12.1,9.9,22,22,22h191V295h-52v-60.2h52v-44.4
	c0-51.5,31.5-79.6,77.4-79.6c22,0,40.9,1.6,46.4,2.4V167h-31.9c-25,0-29.8,11.9-29.8,29.3v38.4h59.6l-7.8,60.2h-51.8v154.4h101.6
	c12.1,0,22-9.9,22-22V72.6C449.4,60.5,439.5,50.6,427.4,50.6z"/>
<g>
	<path class="st1" d="M248.1,88.1c52.7,0,59,0.2,79.8,1.2c19.3,0.9,29.7,4.1,36.7,6.8c9.2,3.6,15.8,7.9,22.7,14.8
		c6.9,6.9,11.2,13.5,14.8,22.7c2.7,7,5.9,17.4,6.8,36.7c1,20.8,1.2,27.1,1.2,79.8s-0.2,59-1.2,79.8c-0.9,19.3-4.1,29.7-6.8,36.7
		c-3.6,9.2-7.9,15.8-14.8,22.7c-6.9,6.9-13.5,11.2-22.7,14.8c-7,2.7-17.4,5.9-36.7,6.8c-20.8,1-27.1,1.2-79.8,1.2s-59-0.2-79.8-1.2
		c-19.3-0.9-29.7-4.1-36.7-6.8c-9.2-3.6-15.8-7.9-22.7-14.8c-6.9-6.9-11.2-13.5-14.8-22.7c-2.7-7-5.9-17.4-6.8-36.7
		c-1-20.8-1.2-27.1-1.2-79.8s0.2-59,1.2-79.8c0.9-19.3,4.1-29.7,6.8-36.7c3.6-9.2,7.9-15.8,14.8-22.7c6.9-6.9,13.5-11.2,22.7-14.8
		c7-2.7,17.4-5.9,36.7-6.8C189.1,88.3,195.4,88.1,248.1,88.1 M248.1,52.5c-53.6,0-60.4,0.2-81.4,1.2s-35.4,4.3-47.9,9.2
		c-13,5-24,11.8-35,22.8s-17.7,22-22.8,35c-4.9,12.6-8.2,26.9-9.2,47.9c-1,21.1-1.2,27.8-1.2,81.4s0.2,60.4,1.2,81.4
		s4.3,35.4,9.2,47.9c5,13,11.8,24,22.8,35s22,17.7,35,22.8c12.6,4.9,26.9,8.2,47.9,9.2c21.1,1,27.8,1.2,81.4,1.2s60.4-0.2,81.4-1.2
		s35.4-4.3,47.9-9.2c13-5,24-11.8,35-22.8s17.7-22,22.8-35c4.9-12.6,8.2-26.9,9.2-47.9c1-21.1,1.2-27.8,1.2-81.4s-0.2-60.4-1.2-81.4
		s-4.3-35.4-9.2-47.9c-5-13-11.8-24-22.8-35s-22-17.7-35-22.8c-12.6-4.9-26.9-8.2-47.9-9.2C308.5,52.7,301.7,52.5,248.1,52.5z
		 M248.1,148.6c-56,0-101.4,45.4-101.4,101.4s45.4,101.4,101.4,101.4S349.5,306,349.5,250S304.1,148.6,248.1,148.6z M248.1,315.8
		c-36.4,0-65.8-29.5-65.8-65.8s29.5-65.8,65.8-65.8s65.8,29.5,65.8,65.8S284.5,315.8,248.1,315.8z M377.2,144.6
		c0,13.1-10.6,23.7-23.7,23.7s-23.7-10.6-23.7-23.7s10.6-23.7,23.7-23.7S377.2,131.5,377.2,144.6z"/>
</g>
</svg>
