<?xml version="1.0" encoding="utf-8"?>
<!-- Generator: Adobe Illustrator 23.0.3, SVG Export Plug-In . SVG Version: 6.00 Build 0)  -->
<svg version="1.1" id="Camada_1" xmlns="http://www.w3.org/2000/svg" xmlns:xlink="http://www.w3.org/1999/xlink" x="0px" y="0px"
	 viewBox="0 0 500 500" style="enable-background:new 0 0 500 500;" xml:space="preserve">
<style type="text/css">
	.st0{display:none;}
	.st1{display:inline;}
	.st2{fill:#6B717F;}
</style>
<g class="st0">
	<path class="st1" d="M427.4,50.6H72.6c-12.2,0-22,9.9-22,22v354.8c0,12.1,9.9,22,22,22h191V295h-52v-60.2h52v-44.4
		c0-51.5,31.5-79.6,77.4-79.6c22,0,40.9,1.6,46.4,2.4V167h-31.9c-25,0-29.8,11.9-29.8,29.3v38.4h59.6l-7.8,60.2h-51.8v154.4h101.6
		c12.1,0,22-9.9,22-22V72.6C449.4,60.5,439.5,50.6,427.4,50.6z"/>
</g>
<g>
	<path class="st2" d="M449.3,126.4c-14.7,6.5-30.4,10.9-47,12.9c16.9-10.1,29.9-26.1,36-45.3c-15.8,9.4-33.3,16.2-51.9,19.9
		c-15-16-36.2-25.9-59.8-25.9c-52.8,0-91.6,49.3-79.7,100.4c-68-3.4-128.2-36-168.6-85.5c-21.4,36.8-11.1,84.9,25.3,109.2
		c-13.4-0.4-26-4.1-37-10.2c-0.9,37.9,26.3,73.3,65.6,81.2c-11.5,3.1-24.1,3.9-36.9,1.4c10.4,32.5,40.6,56.1,76.4,56.8
		c-34.4,27-77.7,39-121.1,33.9C86.8,398.5,129.8,412,176,412c151.9,0,237.7-128.3,232.5-243.3C424.5,157.2,438.3,142.7,449.3,126.4z
		"/>
</g>
</svg>
