<?xml version="1.0" encoding="utf-8"?>
<!-- Generator: Adobe Illustrator 23.0.3, SVG Export Plug-In . SVG Version: 6.00 Build 0)  -->
<svg version="1.1" id="Camada_1" xmlns="http://www.w3.org/2000/svg" xmlns:xlink="http://www.w3.org/1999/xlink" x="0px" y="0px"
	 viewBox="0 0 500 500" style="enable-background:new 0 0 500 500;" xml:space="preserve">
<style type="text/css">
	.st0{display:none;fill:#FFFFFF;}
	.st1{display:none;}
	.st2{display:inline;fill:#FFFFFF;}
	.st3{display:none;fill:#E0E0E0;}
	.st4{display:inline;}
	.st5{fill:url(#SVGID_1_);}
	.st6{fill-rule:evenodd;clip-rule:evenodd;fill:#4F5052;}
	.st7{fill:#4F5052;}
</style>
<path class="st0" d="M435.1,42H64.9c-12.7,0-23,10.3-23,23v370.2c0,12.7,10.3,23,23,23h199.3V296.9H210v-62.8h54.2v-46.3
	c0-53.7,32.8-83,80.8-83c23,0,42.7,1.7,48.5,2.5v56.2h-33.3c-26.1,0-31.1,12.4-31.1,30.6v40.1h62.2l-8.1,62.8h-54.1v161h106
	c12.7,0,22.9-10.3,22.9-23V64.9C458,52.2,447.8,42,435.1,42z"/>
<g class="st1">
	<path class="st2" d="M248,81.1c55,0,61.5,0.2,83.3,1.2c20.1,0.9,31,4.3,38.3,7.1c9.6,3.7,16.5,8.2,23.7,15.4s11.7,14.1,15.4,23.7
		c2.8,7.3,6.2,18.2,7.1,38.3c1,21.7,1.2,28.2,1.2,83.3s-0.2,61.5-1.2,83.3c-0.9,20.1-4.3,31-7.1,38.3c-3.7,9.6-8.2,16.5-15.4,23.7
		s-14.1,11.7-23.7,15.4c-7.3,2.8-18.2,6.2-38.3,7.1c-21.7,1-28.2,1.2-83.3,1.2s-61.5-0.2-83.3-1.2c-20.1-0.9-31-4.3-38.3-7.1
		c-9.6-3.7-16.5-8.2-23.7-15.4S91,381.3,87.3,371.7c-2.8-7.3-6.2-18.2-7.1-38.3c-1-21.7-1.2-28.2-1.2-83.3s0.2-61.5,1.2-83.3
		c0.9-20.1,4.3-31,7.1-38.3c3.7-9.6,8.2-16.5,15.4-23.7s14.1-11.7,23.7-15.4c7.3-2.8,18.2-6.2,38.3-7.1
		C186.5,81.3,193,81.1,248,81.1 M248,43.9c-56,0-63,0.2-85,1.2c-21.9,1-36.9,4.5-50,9.6C99.5,60,88,67.1,76.5,78.5
		S58,101.5,52.8,115c-5.1,13.1-8.6,28.1-9.6,50c-1,22-1.2,29-1.2,85s0.2,63,1.2,85c1,21.9,4.5,36.9,9.6,50
		c5.3,13.5,12.3,25,23.8,36.5C88,432.9,99.5,440,113,445.2c13.1,5.1,28.1,8.6,50,9.6c22,1,29,1.2,85,1.2s63-0.2,85-1.2
		c21.9-1,36.9-4.5,50-9.6c13.6-5.3,25-12.3,36.5-23.8C431,410,438,398.5,443.3,385c5.1-13.1,8.6-28.1,9.6-50c1-22,1.2-29,1.2-85
		s-0.2-63-1.2-85c-1-21.9-4.5-36.9-9.6-50c-5.3-13.6-12.3-25-23.8-36.5C408,67.1,396.6,60,383,54.8c-13.1-5.1-28.1-8.6-50-9.6
		C311,44.2,304,43.9,248,43.9z M248,144.2c-58.4,0-105.8,47.4-105.8,105.8S189.6,355.8,248,355.8S353.8,308.4,353.8,250
		S306.5,144.2,248,144.2z M248,318.7c-37.9,0-68.7-30.8-68.7-68.7s30.8-68.7,68.7-68.7s68.7,30.8,68.7,68.7S286,318.7,248,318.7z
		 M382.7,140c0,13.7-11.1,24.7-24.7,24.7c-13.7,0-24.7-11.1-24.7-24.7s11.1-24.7,24.7-24.7C371.7,115.3,382.7,126.3,382.7,140z"/>
</g>
<path class="st3" d="M395,107.9c-38.1-38.2-88.9-59.2-142.9-59.2c-111.3,0-201.9,90.6-202,201.9c0,35.6,9.3,70.3,27,101L48.4,456.2
	l107.1-28.1c29.5,16.1,62.7,24.6,96.5,24.6h0.1l0,0c111.3,0,201.9-90.6,202-201.9C454.1,196.8,433.1,146.1,395,107.9L395,107.9z
	 M252.1,418.6L252.1,418.6c-30.2,0-59.7-8.1-85.5-23.4l-6.1-3.6L97,408.3l17-61.9l-4-6.3c-16.8-26.7-25.7-57.6-25.7-89.3
	c0-92.5,75.3-167.8,168-167.8c44.8,0,87,17.5,118.7,49.2s49.1,73.9,49.1,118.7C419.9,343.3,344.6,418.6,252.1,418.6z"/>
<g class="st1">
	<g class="st4">
		
			<linearGradient id="SVGID_1_" gradientUnits="userSpaceOnUse" x1="123.5595" y1="216.3683" x2="123.5595" y2="25.8058" gradientTransform="matrix(2.0408 0 0 2.0408 -0.9602 3.0356)">
			<stop  offset="0" style="stop-color:#20B038"/>
			<stop  offset="1" style="stop-color:#60D66A"/>
		</linearGradient>
		<path class="st5" d="M388.4,112.3C352,75.8,303.6,55.8,252,55.7c-106.2,0-192.7,86.4-192.8,192.7c0,34,8.9,67.1,25.7,96.3
			l-27.3,99.9l0,0l102.2-26.8c28.2,15.3,59.9,23.4,92.1,23.5h0.1c106.2,0,192.7-86.4,192.8-192.7
			C444.8,197.1,424.8,148.7,388.4,112.3z"/>
	</g>
</g>
<path class="st6" d="M202.2,164.9c-3.7-8.3-7.7-8.5-11.2-8.6c-2.9-0.1-6.2-0.1-9.6-0.1c-3.3,0-8.7,1.3-13.3,6.2
	c-4.6,5-17.5,17.1-17.5,41.6s17.9,48.3,20.4,51.6c2.5,3.3,34.5,55.3,85.2,75.3c42.1,16.6,50.7,13.3,59.9,12.5
	c9.1-0.8,29.5-12.1,33.7-23.7s4.2-21.6,2.9-23.7c-1.2-2.1-4.6-3.3-9.6-5.8S313.6,275.6,309,274c-4.6-1.7-7.9-2.5-11.2,2.5
	c-3.3,5-12.9,16.2-15.8,19.6c-2.9,3.3-5.8,3.7-10.8,1.3c-5-2.5-21.1-7.8-40.1-24.8c-14.8-13.2-24.8-29.6-27.8-34.5
	c-2.9-5-0.3-7.7,2.2-10.2c2.2-2.2,5-5.8,7.5-8.7s3.3-5,5-8.3s0.8-6.2-0.4-8.7S206.6,174.8,202.2,164.9L202.2,164.9z"/>
<path class="st7" d="M393.3,107.3c-37.7-37.7-87.8-58.5-141.2-58.5C142,48.8,52.5,138.3,52.4,248.4c0,35.2,9.2,69.5,26.7,99.8
	L50.7,451.6l105.9-27.8c29.2,15.9,62,24.3,95.4,24.3h0.1l0,0c110,0,199.6-89.6,199.7-199.6C451.8,195.2,431,145,393.3,107.3
	L393.3,107.3z M252.1,414.4L252.1,414.4c-29.9,0-59.1-8-84.5-23.1l-6.1-3.6l-62.8,16.5l16.8-61.2l-4-6.3
	c-16.6-26.4-25.4-56.9-25.4-88.3c0-91.5,74.5-165.9,166-165.9c44.3,0,86,17.3,117.3,48.7s48.6,73,48.6,117.4
	C418,340,343.6,414.4,252.1,414.4z"/>
</svg>
