<svg id="Camada_1" data-name="Camada 1" xmlns="http://www.w3.org/2000/svg" viewBox="0 0 8192.02 6895.98"><defs><style>.cls-1{fill:#00bfb2;}</style></defs><title>paper-plane</title><path class="cls-1" d="M4632.8,6851.48,3319.88,5602.89,1971.14,6821.08a162.87,162.87,0,0,1-282.82-110.2V4051.28L50.48,2493.7a162.5,162.5,0,0,1,68.1-274.17l0-.07L7985.49,6.07A162.57,162.57,0,0,1,8169.71,244.7L4889.89,6806.28a162.29,162.29,0,0,1-256.89,45l-.17.18ZM3084.14,5378.71l-1070-1017.6v1984.1Zm-1207.74-1597L6964.7,631,481.42,2455.1l1395,1326.61Zm5752.17-3180-5509,3411.23,2578.3,2452L7628.57,601.67Z" transform="translate(0.01 0.01)"/></svg>