<svg id="Camada_1" data-name="Camada 1" xmlns="http://www.w3.org/2000/svg" viewBox="0 0 8191.95 7328.6"><defs><style>.cls-1{fill:#00bfb2;}</style></defs><title>recurring-subscription</title><path class="cls-1" d="M7698.12,4346.11c-159.57,846.54-610.56,1590.48-1245,2123.66-637.74,536-1459.54,858.83-2355.58,858.83-842.14,0-1618.52-284.86-2238.15-763.68-632.66-488.84-1101.06-1180.38-1308-1977.5L1009,4468.87c180.14,693.73,588.15,1295.89,1139.44,1721.86C2686.86,6606.8,3363,6854.38,4097.6,6854.38c782.27,0,1497.95-280.39,2051.77-745.81C6679.52,5663,7062.51,5047.7,7215,4346.13H6726.49l732.75-892.91L8192,4346.13H7698.12ZM4085.78,4605V3768.13Q3644.08,3656.44,3438.89,3430c-137.58-151.66-206.34-334.72-206.34-550.6q0-327.9,233.42-550.6,233-223.39,619.83-256.87V1875.17H4415v196.75q361.71,37.9,575.77,217.23,213.33,179.31,272.82,479.55l-575,65.6q-53.34-235.68-273.6-319.71v780.82c364,86.07,612.11,198.8,743.5,336.1q198.25,207,197.83,530.8,0,361.74-248.85,609.36-249.24,248-692.48,308.77v373H4085.78V5084.54q-389.55-42-633.74-255.49c-163.09-142.76-266.65-345-312.24-605.26l588.91-61.48c24,106.56,69.55,198.1,136,275.3s139.89,132.53,221,167.38Zm0-2098.59c-88.89,28-158.44,73.78-210.23,138s-77.29,134.58-77.29,211.77c0,70.36,23.2,136,70.34,196.76,47.16,60.11,119.78,109.29,217.18,146.18ZM4415,4637.75c113.59-21.87,206.34-69.67,277.44-143.47,71.88-73.78,107.42-160.53,107.42-260.95,0-88.79-30.13-166-90.42-230.23-59.52-64.9-157.65-114.08-294.46-148.9v783.55ZM497.54,2982.37c158.1-838.88,602.21-1576.92,1227.27-2108.87C2364.94,328.75,3193.47,0,4097.6,0c795.13,0,1531.3,253.45,2132.11,684C6846.15,1125.78,7319.92,1754.6,7568.39,2487.8l-224.14,75.94-224.13,76q-9.48-27.9-19.44-55.61c-220.89-614-625.16-1140.84-1146.93-1514.77C5431,694.74,4790.2,474.22,4097.65,474.22c-789.51,0-1511.18,285.55-2067.14,758.66-522.41,444.58-899.6,1054.8-1050.67,1749.46h485.72L732.81,3875.26.05,2982.34H497.59Z" transform="translate(-0.05)"/></svg>