<svg id="Camada_1" data-name="Camada 1" xmlns="http://www.w3.org/2000/svg" viewBox="0 0 8192.07 6255.53"><defs><style>.cls-1{fill:#00bfb2;fill-rule:evenodd;}</style></defs><title>user-network</title><path class="cls-1" d="M6549.54,1039.2c352.76,0,638.73,286,638.73,638.73s-286,638.73-638.73,638.73a635.47,635.47,0,0,1-343.11-99.9,131.25,131.25,0,0,1-13.86,15.65l-473.75,456.85c316.19,353,516.68,811.87,541.75,1316.85h662.62c50.11-302.75,313.12-533.64,630.08-533.64,352.76,0,638.73,286,638.73,638.73s-286,638.73-638.73,638.73c-299.53,0-550.9-206.22-619.93-484.39-3.2.24-6.44.37-9.68.37H6257.87c-35.05,497.88-240.73,948.66-558.94,1294.22l502.12,466.45a130.23,130.23,0,0,1,13.49,14.6,635.76,635.76,0,0,1,335-94.84c352.76,0,638.73,286,638.73,638.73s-286,638.73-638.73,638.73-638.74-286-638.74-638.73a635.83,635.83,0,0,1,115.19-366l-2.23-2L5511,5740.81c-372.72,317.28-855.84,508.77-1383.68,508.77-545.1,0-1042.52-204.25-1419.91-540.32l-517.15,504.3-.54.51A635.87,635.87,0,0,1,2301.4,6574.9c0,352.76-286,638.73-638.73,638.73s-638.73-286-638.73-638.73,286-638.73,638.73-638.73A635.48,635.48,0,0,1,2002.41,6034q3.12-3.51,6.53-6.83L2524,5524.84c-303.46-344.53-497.64-787.64-528.26-1275.1l-726.93,7.37-3.81,0c-58.35,292.63-316.59,513.15-626.37,513.15-352.77,0-638.73-286-638.73-638.73s286-638.73,638.73-638.73c306.78,0,563,216.27,624.6,504.67l3.54-.08,728.26-7.39c28.14-492.48,223.15-940.31,529.34-1287.76l-542.2-517.75a130.46,130.46,0,0,1-11.45-12.38,635.83,635.83,0,0,1-298,73.65c-352.76,0-638.73-286-638.73-638.73s286-638.73,638.73-638.73,638.73,286,638.73,638.73a635.86,635.86,0,0,1-139.79,398.77l536.18,512C3085.25,2182,3582.45,1977.9,4127.32,1977.9c538.63,0,1030.72,199.44,1406.44,528.44L6012.21,2045c2.92-2.81,5.92-5.44,9-7.92A635.81,635.81,0,0,1,5910.76,1678c0-352.76,286-638.73,638.73-638.73ZM3827.64,4333.39l178,523.42,89.5-310.59-43.87-48c-19.8-28.83-24.1-54.09-13.12-75.82,23.77-47,72.94-38.24,118.88-38.24,48.12,0,107.54-9.12,122.61,51.12,5,20.15-1.31,41.24-15.41,62.94l-43.87,48,89.48,310.59,161.14-523.42c116.27,104.62,460.41,125.61,588.43,197,40.47,22.58,77.07,51.34,106.49,90.17,44.63,58.93,72,135.93,79.5,233.64l26.74,259.38c-6.49,69.15-45.74,109-123,114.89H3149.39c-77.21-5.9-116.44-45.74-122.95-114.89l26.74-259.38c7.47-97.71,34.85-174.68,79.5-233.64,29.44-38.88,66-67.59,106.49-90.17,128-71.42,472.15-92.41,588.42-197Zm-48.29-790.85a34.29,34.29,0,0,1,2.83,12.65,36.22,36.22,0,0,1-.42,6.37l3.12,24.77a95.68,95.68,0,0,1-24.94,1.72,34.14,34.14,0,0,1-10.84,2.06c-21.85.62-38.14,4.9-49,12.19a34.37,34.37,0,0,0-12.29,14.16c-3,6.56-4.42,14.65-4.15,24,.81,29.15,16.36,67.63,46.4,112.26l.51.82,99.49,158.19c39.69,63.11,81.27,127.4,132.66,174.39,48.93,44.76,108.35,75.06,186.75,75.25,85.06.23,147.31-31.26,197.79-78.54,53-49.64,95.11-118.06,136.57-186.36l111.77-184.07c22.53-51.42,29.49-82.8,22.17-97.55-4.8-9.68-24.7-12.09-58-9a33.8,33.8,0,0,1-26.69-9.41c-2.65,0-5.33-.2-8-.39l1.6-8.14a33.95,33.95,0,0,1,8.28-42.07l23.27-117.92c-204.86-2.5-345-38.26-510.81-144.18C3993,3249,3976.6,3209.14,3922,3213c-41.19,7.93-75.74,26.34-103.22,55.93-26.37,28.39-46.22,67.07-59.2,116.66Zm847.6.07c23.94,7,41.32,20.72,51.91,42.1,16.83,34,10.29,84.44-21.38,156.38l-.1-.05a33.75,33.75,0,0,1-2,3.9L4542,3931.62c-43.89,72.28-88.49,144.81-148.29,200.76-62.3,58.35-139.15,97.2-244.21,96.93-98.16-.24-172.06-37.72-232.61-93.12-58.12-53.15-102.39-121.43-144.41-188.25l-99.41-158.07c-37-55.15-56.21-105.85-57.39-147.58-.56-20.08,2.85-38.34,10.3-54.41a101.85,101.85,0,0,1,36.28-42.15,124.27,124.27,0,0,1,26.93-13.52c-6.09-84.76-8.31-189.9-4.25-278.22a378.33,378.33,0,0,1,12.26-64.42c25.41-90.8,89.16-163.92,168-214.18a458.49,458.49,0,0,1,90.47-44.06c191-69.11,444.28-31.33,579.89,115.34,55.25,59.74,89.85,139,97.37,243.76l-6,252.13Zm824.92-756.16a127.41,127.41,0,0,1-11-10.15c-1.87-1.91-3.64-3.9-5.33-5.92-337.82-329.05-799.34-531.75-1308.18-531.75-509.74,0-972,203.39-1310,533.45a127.29,127.29,0,0,1-13.51,16.76,131.06,131.06,0,0,1-21,17.89c-328.33,337.7-530.55,798.7-530.55,1307,0,517.79,209.88,986.56,549.18,1325.88s808.08,549.17,1325.88,549.17S5114,5778.86,5453.27,5439.56s549.18-808.09,549.18-1325.88-209.88-986.55-549.18-1325.87l-1.37-1.38Z" transform="translate(0.07 -968.27)"/></svg>