<svg id="Camada_1" data-name="Camada 1" xmlns="http://www.w3.org/2000/svg" viewBox="0 0 560 280"><defs><style>.cls-1{fill:none;}.cls-2,.cls-3{isolation:isolate;font-size:69.86px;font-family:Gilroy-ExtraBold, Gilroy;font-weight:800;}.cls-2,.cls-4{fill:#11205f;}.cls-3,.cls-5{fill:#00bfb2;}.cls-4,.cls-5{fill-rule:evenodd;}</style></defs><title>bankon-horizontal-logo</title><g id="Camada_1-2" data-name="Camada 1-2"><g id="Camada_1-2-2" data-name="Camada 1-2-2"><g id="Page-1"><g id="v09-bancoOnline-horizontal-shadow"><rect id="Rectangle" class="cls-1" width="560" height="280"/><g id="BANKON"><text class="cls-2" transform="translate(169.67 159.89)">BANK</text><text class="cls-3" transform="translate(349.28 159.89)">ON</text></g><g id="BankOn-logo"><g id="Camada_3" data-name="Camada 3"><g id="Camada_6" data-name="Camada 6"><path class="cls-4" d="M95.3,62.1a29.6,29.6,0,0,0-38-3.3V30.9a6.35,6.35,0,0,0-12.7-.5V83.2h0a29.75,29.75,0,1,0,59.5-.3A30.71,30.71,0,0,0,95.3,62.1ZM86.6,95.3a17.19,17.19,0,0,1-12.1,5h0A17.1,17.1,0,1,1,91.6,83.2,16.08,16.08,0,0,1,86.6,95.3Z" transform="translate(24.7 62.4)"/></g></g><g id="Camada_9" data-name="Camada 9"><g id="Camada_8" data-name="Camada 8"><path class="cls-1" d="M40.7,83.2A33.6,33.6,0,1,0,74.1,49.4a34,34,0,0,0-13,2.7V83.3l-20.4-.1Z" transform="translate(24.7 62.4)"/><path class="cls-5" d="M74.4,32.7a49.61,49.61,0,0,0-13.3,1.8V52.1A33.64,33.64,0,1,1,43.5,96.3a.1.1,0,0,0-.1-.1,32.22,32.22,0,0,1-2.7-13V45.7a50.05,50.05,0,1,0,33.7-13Z" transform="translate(24.7 62.4)"/></g></g></g></g></g></g></g></svg>