<svg xmlns="http://www.w3.org/2000/svg" viewBox="0 0 560 280"><defs><style>.cls-1{fill:none;}.cls-2,.cls-3{isolation:isolate;font-size:69.86px;font-family:Gilroy-ExtraBold, Gilroy;font-weight:800;}.cls-2,.cls-4{fill:#11205f;}.cls-3,.cls-5{fill:#00bfb2;}.cls-4,.cls-5{fill-rule:evenodd;}</style></defs><title>bankon-horizontal-logo</title><g id="Camada_2" data-name="Camada 2"><g id="Camada_1-2" data-name="Camada 1"><g id="Camada_1-2-2" data-name="Camada 1-2"><g id="Page-1"><g id="v09-bancoOnline-horizontal-shadow"><rect id="Rectangle" class="cls-1" width="560" height="280"/><g id="BANKON"><text class="cls-2" transform="translate(169.64 159.84)">BANK</text><text class="cls-3" transform="translate(349.25 159.84)">ON</text></g><g id="BankOn-logo"><g id="Camada_3" data-name="Camada 3"><g id="Camada_6" data-name="Camada 6"><path class="cls-4" d="M120,124.5a29.6,29.6,0,0,0-38-3.3V93.3a6.35,6.35,0,1,0-12.7-.5v52.8h0a29.7,29.7,0,1,0,59.4-.3A30,30,0,0,0,120,124.5Zm-8.7,33.2a17.19,17.19,0,0,1-12.1,5h0a17.1,17.1,0,1,1,17.1-17.1,16.23,16.23,0,0,1-5,12.1Z"/></g></g><g id="Camada_9" data-name="Camada 9"><g id="Camada_8" data-name="Camada 8"><path class="cls-1" d="M65.4,145.6a33.6,33.6,0,1,0,33.4-33.8,34,34,0,0,0-13,2.7v31.2H65.4Z"/><path class="cls-5" d="M99.1,95.1a49.61,49.61,0,0,0-13.3,1.8v17.6a33.67,33.67,0,1,1-17.7,44.1,32.22,32.22,0,0,1-2.7-13V108.1a50.07,50.07,0,1,0,33.7-13Z"/></g></g></g></g></g></g></g></g></svg>