<?xml version="1.0" encoding="utf-8"?>
<!-- Generator: Adobe Illustrator 23.0.3, SVG Export Plug-In . SVG Version: 6.00 Build 0)  -->
<svg version="1.1" id="Camada_1" xmlns="http://www.w3.org/2000/svg" xmlns:xlink="http://www.w3.org/1999/xlink" x="0px" y="0px"
	 viewBox="0 0 446.8 157.1" style="enable-background:new 0 0 446.8 157.1;" xml:space="preserve">
<style type="text/css">
	.st0{fill:none;}
	.st1{fill:#11205F;}
	.st2{font-family:'Gilroy-ExtraBold';}
	.st3{font-size:69.86px;}
	.st4{fill:#00BFB2;}
	.st5{fill-rule:evenodd;clip-rule:evenodd;fill:#11205F;}
	.st6{fill-rule:evenodd;clip-rule:evenodd;fill:#00BFB2;}
</style>
<title>bankon-horizontal-logo</title>
<g>
	<g id="Camada_1-2">
		<g id="Camada_1-2-2">
			<g id="Page-1">
				<g id="v09-bancoOnline-horizontal-shadow">
					<rect id="Rectangle" x="-24.7" y="-62.4" class="st0" width="560" height="280"/>
					<g id="BANKON">
						<text transform="matrix(1 0 0 1 144.9694 97.488)" class="st1 st2 st3">BANK</text>
						<text transform="matrix(1 0 0 1 324.5794 97.488)" class="st4 st2 st3">ON</text>
					</g>
					<g id="BankOn-logo">
						<g id="Camada_3">
							<g id="Camada_6">
								<path class="st5" d="M95.3,62.1c-10.2-10.2-26.2-11.6-38-3.3V30.9c0.1-3.5-2.6-6.5-6.1-6.6s-6.5,2.6-6.6,6.1v52.8l0,0
									c0.1,16.4,13.4,29.6,29.9,29.6s29.6-13.4,29.6-29.9C103.9,75.1,100.8,67.7,95.3,62.1z M86.6,95.3c-3.2,3.2-7.6,5-12.1,5l0,0
									c-9.4,0-17.1-7.7-17.1-17.1c0-9.4,7.7-17.1,17.1-17.1s17.1,7.7,17.1,17.1C91.7,87.8,89.9,92.2,86.6,95.3z"/>
							</g>
						</g>
						<g id="Camada_9">
							<g id="Camada_8">
								<path class="st0" d="M40.7,83.2c0.1,18.6,15.2,33.5,33.8,33.4c18.6-0.1,33.5-15.2,33.4-33.8c-0.1-18.6-15.2-33.5-33.8-33.4
									c-4.5,0-8.9,1-13,2.7v31.2L40.7,83.2L40.7,83.2z"/>
								<path class="st6" d="M74.4,32.7c-4.5,0-9,0.6-13.3,1.8v17.6c17.1-7.3,36.9,0.6,44.2,17.6c7.3,17.1-0.6,36.9-17.6,44.2
									s-36.9-0.6-44.2-17.6c0,0,0-0.1-0.1-0.1c-1.8-4.1-2.7-8.5-2.7-13V45.7c-20.5,18.6-22,50.3-3.4,70.7s50.3,22,70.7,3.4
									s22-50.3,3.4-70.7C102,38.7,88.5,32.8,74.4,32.7z"/>
							</g>
						</g>
					</g>
				</g>
			</g>
		</g>
	</g>
</g>
</svg>
