<svg id="Camada_1" data-name="Camada 1" xmlns="http://www.w3.org/2000/svg" viewBox="0 0 560 280"><defs><style>.cls-1{fill:none;}.cls-2,.cls-3{isolation:isolate;font-size:69.86px;font-family:Gilroy-ExtraBold, Gilroy;font-weight:800;}.cls-2,.cls-4{fill:#11205f;}.cls-3,.cls-5{fill:#00bfb2;}.cls-4,.cls-5{fill-rule:evenodd;}</style></defs><title>bankon-logo-horizontal</title><g id="Camada_1-2" data-name="Camada 1-2"><g id="Camada_1-2-2" data-name="Camada 1-2-2"><g id="Page-1"><g id="v09-bancoOnline-horizontal-shadow"><rect id="Rectangle" class="cls-1" width="560" height="280"/><g id="BANKON"><text class="cls-2" transform="translate(169.64 159.84)">BANK</text><text class="cls-3" transform="translate(349.25 159.84)">ON</text></g><g id="BankOn-logo"><g id="Camada_3" data-name="Camada 3"><g id="Camada_6" data-name="Camada 6"><path class="cls-4" d="M95.33,62.15a29.6,29.6,0,0,0-38-3.3V31a6.35,6.35,0,0,0-12.7-.5v52.8h0A29.7,29.7,0,0,0,104,83,30,30,0,0,0,95.33,62.15Zm-8.7,33.2a17.22,17.22,0,0,1-12.1,5h0a17.1,17.1,0,1,1,17.1-17.1A16.23,16.23,0,0,1,86.63,95.35Z" transform="translate(24.67 62.35)"/></g></g><g id="Camada_9" data-name="Camada 9"><g id="Camada_8" data-name="Camada 8"><path class="cls-1" d="M40.73,83.25a33.6,33.6,0,1,0,20.4-31.1v31.2H40.73Z" transform="translate(24.67 62.35)"/><path class="cls-5" d="M74.43,32.75a49.42,49.42,0,0,0-13.3,1.8v17.6A33.67,33.67,0,1,1,43.48,96.37l0-.12a32.32,32.32,0,0,1-2.7-13V45.75a50.08,50.08,0,1,0,33.7-13Z" transform="translate(24.67 62.35)"/></g></g></g></g></g></g></g></svg>