<?xml version="1.0" encoding="utf-8"?>
<!-- Generator: Adobe Illustrator 22.0.1, SVG Export Plug-In . SVG Version: 6.00 Build 0)  -->
<svg version="1.1" id="Camada_1" xmlns="http://www.w3.org/2000/svg" xmlns:xlink="http://www.w3.org/1999/xlink" x="0px" y="0px"
	 viewBox="0 0 474 511" style="enable-background:new 0 0 474 511;" xml:space="preserve">
<style type="text/css">
	.st0{fill:#11205F;}
	.st1{fill:#00BFB2;}
</style>
<title>BankOn</title>
<desc>Created with Sketch.</desc>
<g id="Page-1">
	<g id="BankOn" transform="translate(-74.000000, -56.000000)">
		<g id="Group-2" transform="translate(74.000000, 56.000000)">
			<g id="Camada_3" transform="translate(96.000000, 0.000000)">
				<g id="Camada_6">
					<path class="st0" d="M238.9,176.5c-26.2-26.2-61.7-40.9-98.7-40.9c-29.7,0-57.3,9.3-79.9,25.1V29.9c0-7.9-3.1-15.5-8.8-21.1
						C45.9,3.2,38.3,0,30.4,0C13.9,0,0.5,13.4,0.5,29.9V276h0C1,352.7,63.3,414.8,140.2,414.8c77.1,0,139.6-62.5,139.6-139.6
						C279.8,238.2,265,202.6,238.9,176.5z M198.4,332.9c-15.1,15.1-35.6,23.6-56.9,23.5l0,0c-44.4,0-80.5-36-80.5-80.4
						c0-44.4,36-80.5,80.5-80.5c44.4,0,80.4,36,80.4,80.5C222,297.4,213.5,317.8,198.4,332.9z"/>
				</g>
			</g>
			<g id="Camada_9" transform="translate(0.000000, 38.000000)">
				<g id="Camada_8">
					<path class="st1" d="M473.1,236.6c0,130.4-105.7,236.1-236.1,236.1S0.9,367,0.9,236.6C0.8,169.9,29,106.3,78.5,61.6V238
						c0,3.3,0.1,6.5,0.4,9.8c4.5,65.7,49.4,122.1,113.2,140.9c66.9,19.7,138.8-6.8,177-65.2c38.2-58.4,33.6-134.8-11.2-188.3
						c-43.5-51.9-115-70.1-177.8-46c-0.6,0.2-1.3,0.5-1.9,0.8c-1.3,0.5-2.5,1-3.8,1.6V8.8c20.4-5.6,41.5-8.4,62.7-8.4
						C367.4,0.4,473.1,106.2,473.1,236.6z"/>
				</g>
			</g>
		</g>
	</g>
</g>
</svg>
